# xmcd CD database file
# Copyright (C) 1996 Ti Kan
#
# Track frame offsets:
#	150
#	14645
#	31129
#	45331
#	60065
#	73259
#	86105
#	103568
#	119378
#	136341
#	158190
#	173467
#	188237
#	203267
#	222715
#	243288
#	255282
#	264100
#	284086
#	309707
# Disc length: 4298 seconds
#
# Revision: 1
# Processed by: cddbd v1.5.1PL2 Copyright (c) Steve Scherf et al.
# Submitted via: CDCOPY 4.744
#
DISCID=1110c814
DTITLE=Various Artist - Unleashed Again
DYEAR=1900
DGENRE=
TTITLE0=Vegas Temper - Get It On
TTITLE1=Vegas Temper - Craving
TTITLE2=Q - Torn
TTITLE3=Q - Step Up
TTITLE4=Porter - Resurrection
TTITLE5=Porter - SUV
TTITLE6=Deconstruct - Reborn
TTITLE7=Deconstruct - Black Roses
TTITLE8=Hour-past - Sinister
TTITLE9=Hour-past - Someday
TTITLE10=Trash Light Vision - Dead Waves on the Air
TTITLE11=Window Pain - Take The Pain
TTITLE12=Window Pain - Down
TTITLE13=Mindset X - Mr. X
TTITLE14=KAGE - Surrender to Serenity
TTITLE15=Project Broken - Sympathy
TTITLE16=Mongrel - Coma America
TTITLE17=Monoblok - Get The Fuck Up
TTITLE18=Voo Doo Terror Tribe - Deleted Scenes
TTITLE19=Mongrel - I Refuse
EXTD=
EXTT0=
EXTT1=
EXTT2=
EXTT3=
EXTT4=
EXTT5=
EXTT6=
EXTT7=
EXTT8=
EXTT9=
EXTT10=
EXTT11=
EXTT12=
EXTT13=
EXTT14=
EXTT15=
EXTT16=
EXTT17=
EXTT18=
EXTT19=
PLAYORDER=
